<mxfile host="65bd71144e">
    <diagram id="jQBfK4Mm0u620z7e4GEA" name="Page-1">
        <mxGraphModel dx="856" dy="800" grid="0" gridSize="10" guides="1" tooltips="1" connect="1" arrows="1" fold="1" page="1" pageScale="1" pageWidth="291" pageHeight="413" background="#FCFCFC" math="0" shadow="0">
            <root>
                <mxCell id="0"/>
                <mxCell id="1" parent="0"/>
                <mxCell id="3" value="Selectionne un/des ingrédients" style="rounded=0;whiteSpace=wrap;html=1;strokeColor=#36393d;labelBackgroundColor=none;labelBorderColor=none;fillColor=none;fontColor=#000000;" parent="1" vertex="1">
                    <mxGeometry x="270" y="40" width="190" height="40" as="geometry"/>
                </mxCell>
                <mxCell id="4" value="{Saisie utilisateur}" style="text;html=1;align=center;verticalAlign=middle;resizable=0;points=[];autosize=1;strokeColor=none;fillColor=none;fontColor=#000000;labelBackgroundColor=none;labelBorderColor=none;" parent="1" vertex="1">
                    <mxGeometry x="160" y="50" width="110" height="20" as="geometry"/>
                </mxCell>
                <mxCell id="5" value="{liste recette précis,&lt;br&gt;liste de suggestion}" style="text;html=1;align=center;verticalAlign=middle;resizable=0;points=[];autosize=1;strokeColor=none;fillColor=none;fontColor=#000000;labelBackgroundColor=none;labelBorderColor=none;" parent="1" vertex="1">
                    <mxGeometry x="460" y="45" width="120" height="30" as="geometry"/>
                </mxCell>
                <mxCell id="7" value="" style="rounded=0;whiteSpace=wrap;html=1;rotation=90;strokeColor=#000000;fontColor=#000000;labelBackgroundColor=none;labelBorderColor=none;fillColor=none;" parent="1" vertex="1">
                    <mxGeometry x="338" y="95" width="40" height="10" as="geometry"/>
                </mxCell>
                <mxCell id="10" value="" style="endArrow=none;html=1;strokeColor=#000000;fontColor=#000000;labelBackgroundColor=none;labelBorderColor=none;" parent="1" edge="1">
                    <mxGeometry width="50" height="50" relative="1" as="geometry">
                        <mxPoint x="235" y="120" as="sourcePoint"/>
                        <mxPoint x="495" y="120" as="targetPoint"/>
                    </mxGeometry>
                </mxCell>
                <mxCell id="13" value="" style="shape=partialRectangle;whiteSpace=wrap;html=1;bottom=0;right=0;fillColor=none;fontColor=#000000;strokeColor=#000000;labelBackgroundColor=none;labelBorderColor=none;" parent="1" vertex="1">
                    <mxGeometry x="230" y="120" width="120" height="20" as="geometry"/>
                </mxCell>
                <mxCell id="14" value="" style="verticalLabelPosition=bottom;verticalAlign=top;html=1;shape=hexagon;perimeter=hexagonPerimeter2;arcSize=6;size=0.27;strokeColor=#666666;labelBackgroundColor=#FFFFFF;labelBorderColor=#000000;fillColor=none;gradientColor=#b3b3b3;" parent="1" vertex="1">
                    <mxGeometry x="70" y="140" width="320" height="60" as="geometry"/>
                </mxCell>
                <mxCell id="15" value="&lt;span&gt;si existe des recettes&lt;/span&gt;&lt;br&gt;&lt;span&gt;&amp;nbsp;avec les n ingrédients&lt;/span&gt;" style="text;html=1;resizable=0;autosize=1;align=center;verticalAlign=middle;points=[];fillColor=none;strokeColor=none;rounded=0;fontColor=#000000;labelBackgroundColor=none;labelBorderColor=none;" parent="1" vertex="1">
                    <mxGeometry x="165" y="155" width="130" height="30" as="geometry"/>
                </mxCell>
                <mxCell id="16" value="Affiche les recettes" style="rounded=0;whiteSpace=wrap;html=1;strokeColor=#000000;fontColor=#000000;labelBackgroundColor=none;labelBorderColor=none;fillColor=none;" parent="1" vertex="1">
                    <mxGeometry x="170" y="240" width="120" height="60" as="geometry"/>
                </mxCell>
                <mxCell id="19" value="" style="html=1;dashed=0;whitespace=wrap;shape=partialRectangle;right=0;left=0;rotation=90;strokeColor=#000000;fontColor=#000000;labelBackgroundColor=none;labelBorderColor=none;fillColor=none;" parent="1" vertex="1">
                    <mxGeometry x="210" y="215" width="40" height="10" as="geometry"/>
                </mxCell>
                <mxCell id="20" value="" style="endArrow=none;html=1;entryX=0;entryY=0.5;entryDx=0;entryDy=0;entryPerimeter=0;strokeColor=#000000;fontColor=#000000;labelBackgroundColor=none;labelBorderColor=none;" parent="1" target="24" edge="1">
                    <mxGeometry width="50" height="50" relative="1" as="geometry">
                        <mxPoint x="370" y="120" as="sourcePoint"/>
                        <mxPoint x="620" y="120" as="targetPoint"/>
                    </mxGeometry>
                </mxCell>
                <mxCell id="24" value="" style="line;strokeWidth=2;direction=south;html=1;fillColor=#FFFFFF;strokeColor=#000000;fontColor=#000000;labelBackgroundColor=none;labelBorderColor=none;" parent="1" vertex="1">
                    <mxGeometry x="620" y="120" width="10" height="100" as="geometry"/>
                </mxCell>
                <mxCell id="25" value="" style="verticalLabelPosition=bottom;verticalAlign=top;html=1;shape=hexagon;perimeter=hexagonPerimeter2;arcSize=6;size=0.27;strokeColor=#000000;fontColor=#000000;labelBackgroundColor=#FFFFFF;labelBorderColor=#000000;fillColor=none;" parent="1" vertex="1">
                    <mxGeometry x="465" y="220" width="320" height="60" as="geometry"/>
                </mxCell>
                <mxCell id="26" value="nb ingrédients" style="text;html=1;resizable=0;autosize=1;align=center;verticalAlign=middle;points=[];fillColor=none;strokeColor=#000000;rounded=0;fontColor=#000000;labelBackgroundColor=none;labelBorderColor=none;" parent="1" vertex="1">
                    <mxGeometry x="580" y="220" width="90" height="20" as="geometry"/>
                </mxCell>
                <mxCell id="27" value="" style="endArrow=none;html=1;entryX=0.5;entryY=1;entryDx=0;entryDy=0;exitX=0.489;exitY=1.2;exitDx=0;exitDy=0;exitPerimeter=0;strokeColor=#000000;fontColor=#000000;labelBackgroundColor=none;labelBorderColor=none;" parent="1" source="26" target="25" edge="1">
                    <mxGeometry width="50" height="50" relative="1" as="geometry">
                        <mxPoint x="430" y="220" as="sourcePoint"/>
                        <mxPoint x="480" y="170" as="targetPoint"/>
                    </mxGeometry>
                </mxCell>
                <mxCell id="28" value="=1" style="text;html=1;resizable=0;autosize=1;align=center;verticalAlign=middle;points=[];fillColor=none;strokeColor=none;rounded=0;fontColor=#000000;labelBackgroundColor=none;labelBorderColor=none;" parent="1" vertex="1">
                    <mxGeometry x="565" y="250" width="30" height="20" as="geometry"/>
                </mxCell>
                <mxCell id="29" value="Sinon" style="text;html=1;resizable=0;autosize=1;align=center;verticalAlign=middle;points=[];fillColor=none;strokeColor=none;rounded=0;fontColor=#000000;labelBackgroundColor=none;labelBorderColor=none;" parent="1" vertex="1">
                    <mxGeometry x="640" y="250" width="50" height="20" as="geometry"/>
                </mxCell>
                <mxCell id="30" value="combinaisons simples" style="shape=process;whiteSpace=wrap;html=1;backgroundOutline=1;strokeColor=#000000;fontColor=#000000;labelBackgroundColor=none;labelBorderColor=none;fillColor=none;" parent="1" vertex="1">
                    <mxGeometry x="440" y="330" width="120" height="60" as="geometry"/>
                </mxCell>
                <mxCell id="31" value="" style="shape=partialRectangle;whiteSpace=wrap;html=1;bottom=0;right=0;fillColor=none;strokeColor=#000000;fontColor=#000000;labelBackgroundColor=none;labelBorderColor=none;" parent="1" vertex="1">
                    <mxGeometry x="485" y="300" width="100" height="30" as="geometry"/>
                </mxCell>
                <mxCell id="33" value="" style="endArrow=none;html=1;entryX=0.375;entryY=1;entryDx=0;entryDy=0;exitX=1;exitY=0;exitDx=0;exitDy=0;strokeColor=#000000;fontColor=#000000;labelBackgroundColor=none;labelBorderColor=none;" parent="1" source="31" target="25" edge="1">
                    <mxGeometry width="50" height="50" relative="1" as="geometry">
                        <mxPoint x="520" y="200" as="sourcePoint"/>
                        <mxPoint x="520" y="170" as="targetPoint"/>
                    </mxGeometry>
                </mxCell>
                <mxCell id="37" value="" style="strokeWidth=1;html=1;shape=mxgraph.flowchart.annotation_2;align=left;labelPosition=right;pointerEvents=1;labelBackgroundColor=none;labelBorderColor=none;fontColor=#000000;fillColor=none;rotation=90;strokeColor=#000000;" vertex="1" parent="1">
                    <mxGeometry x="661" y="213" width="62" height="194" as="geometry"/>
                </mxCell>
                <mxCell id="38" value="combinaisons simples" style="shape=process;whiteSpace=wrap;html=1;backgroundOutline=1;strokeColor=#000000;fontColor=#000000;labelBackgroundColor=none;labelBorderColor=none;fillColor=none;" vertex="1" parent="1">
                    <mxGeometry x="573" y="341" width="120" height="60" as="geometry"/>
                </mxCell>
                <mxCell id="39" value="combinaisons complexes" style="shape=process;whiteSpace=wrap;html=1;backgroundOutline=1;strokeColor=#000000;fontColor=#000000;labelBackgroundColor=none;labelBorderColor=none;fillColor=none;" vertex="1" parent="1">
                    <mxGeometry x="728" y="341" width="120" height="60" as="geometry"/>
                </mxCell>
            </root>
        </mxGraphModel>
    </diagram>
</mxfile>